<?xml version="1.0" encoding="utf-8"?>
<!-- Generator: Adobe Illustrator 26.3.1, SVG Export Plug-In . SVG Version: 6.00 Build 0)  -->
<svg version="1.1" id="Capa_1" xmlns="http://www.w3.org/2000/svg" xmlns:xlink="http://www.w3.org/1999/xlink" x="0px" y="0px"
	 viewBox="0 0 307.3 164.2" style="enable-background:new 0 0 307.3 164.2;" xml:space="preserve">
<style type="text/css">
	.st0{fill:#348638;}
	.st1{fill:url(#SVGID_1_);}
	.st2{fill:url(#SVGID_00000089551179212379054750000010919701039868716162_);}
	.st3{fill:#F3912A;}
</style>
<g>
	<g>
		<path class="st0" d="M164.8,135.4c-2.9,0-5.3-1-7.4-3c-2.1-2.1-3.1-4.5-3.1-7.4L154,38.7c0-3,1-5.5,3.1-7.7
			c2.1-2.1,4.6-3.2,7.6-3.2l2.7,0c4.3,0,7.6,1.8,9.8,5.6l29.9,48.2L236.8,33c2.3-3.7,5.4-5.5,9.7-5.5l2.7,0c3,0,5.5,1,7.6,3.1
			c2.1,2.1,3.2,4.6,3.2,7.6l0.2,36.4l-21.3,39.7l-0.2-47.7L215.9,102c-2.5,3.7-5.4,5.5-8.9,5.6l0,0c-3.5,0-6.5-1.8-9-5.5l-22.7-34.7
			l0.2,57.5c0,2.9-1,5.3-3,7.4C170.3,134.3,167.9,135.3,164.8,135.4L164.8,135.4z"/>
	</g>
	<g>
		
			<linearGradient id="SVGID_1_" gradientUnits="userSpaceOnUse" x1="78.1047" y1="66.6982" x2="-6.6691" y2="99.704" gradientTransform="matrix(1 -4.157872e-03 4.157872e-03 1 -7.1928 15.3604)">
			<stop  offset="0.3104" style="stop-color:#FAB73E"/>
			<stop  offset="0.4275" style="stop-color:#E6A434"/>
			<stop  offset="0.6466" style="stop-color:#B67A1F"/>
			<stop  offset="0.779" style="stop-color:#986115"/>
		</linearGradient>
		<path class="st1" d="M80.3,32.1c-0.4-0.1-0.7-0.2-1.1-0.3c-2.3-0.4-4.5-0.1-6.7,0.7c-4.9,1.9-9.7,3.9-14.6,5.8
			c-1.5,0.6-2.9,1.4-4.1,2.6c-1.2,1.2-2.4,2.2-3.7,3.2c-0.4,0.3-0.7,0.7-1.3,0.5c-0.1,0-0.3,0.1-0.4,0.3c-1.3,1.6-2.7,3.3-4,4.9
			c-0.5,0.6-1,1.3-1.5,2c0.1,0,0.1,0.1,0.2,0.1c0.7-0.9,1.4-1.7,2.1-2.6c0.7-0.8,1.3-1.7,2.4-2.2c-4.6,5.4-7.3,11.7-10.3,18
			c-0.1-0.1-0.1-0.2-0.1-0.3c0.5-1.2,0.7-2.5,0.8-3.9c0.1-1.6,1.2-2.9,2.1-4.3c0.6-0.9,1.2-1.7,1.7-2.6c0.3-0.5,0.5-1.1,0.3-1.6
			c-0.1,0-0.2-0.1-0.2-0.1c-1.8,3-3.5,6.1-5.3,9.2c-0.1-0.2-0.1-0.3-0.2-0.5c-1.1,1.5-1.4,3.3-2.3,4.8c0-0.7,0.2-1.5,0.4-2.2
			c0.3-0.8,0.6-1.6,0.8-2.5c0.1-0.4,0-0.9,0-1.4c-0.6,0.8-0.7,1.8-1.5,2.6c0.1-0.5,0.2-0.9,0.3-1.2c-0.1,0-0.2-0.1-0.4-0.1
			c-0.3,0.8-0.6,1.6-0.9,2.4c-0.7,2.2-1.4,4.3-2.1,6.5c-0.1,0.3-0.3,0.6-0.5,1c-0.1,0-0.1-0.1-0.2-0.1c0.4-5.2,2.8-9.8,4.5-14.7
			c-1.3-0.1-1.3,1.4-2.3,1.7c0-0.7,0.1-1.3,0.1-2c-0.1,0-0.1,0-0.2,0c-0.4,1.1-0.6,2.3-1.7,3.1c-0.4-0.9-0.2-1.7,0.1-2.5
			c0.4-0.9,0.8-1.8,1.1-2.8c0.1-0.4,0-1,0-1.4c-0.1,0-0.1,0-0.2,0c-1.1,1.9-1.4,4.2-2.9,5.9c0-0.2,0-0.5,0.1-0.6
			c0.3-0.7,0.7-1.3,1-2c0.4-0.8,0.7-1.6,0.5-2.7C30.1,52.9,30,53,30,53.1c-1.2,3-2.4,6-3.6,9.1c-0.1,0.2-0.1,0.5,0,0.8
			c0.1,0.8,0.1,1.6-0.5,2.1c-0.8,0.6-0.8,1.4-0.9,2.2c0,0.3-0.1,0.5-0.2,0.8c-0.5,1.5-1.1,2.9-1.4,4.4c-1.1,4.7-1.1,9.4-0.6,14.2
			c0.5,4.5,1.4,8.9,2.6,13.3c0.2,0.7,0.3,1.3,0.5,2c-0.1,0-0.1,0-0.2,0.1c-0.4-1.2-0.9-2.3-1.3-3.5c-1.7-5-2.5-10.2-2.6-15.5
			c0-0.7-0.3-1.4-0.4-2.2c-0.2,0.3-0.2,0.5-0.2,0.8c0,1.4,0,2.9,0,4.3c0,3.9,0.5,7.8,1.4,11.6c1.6,6.5,4.6,12.4,8.6,17.8
			c3.9,5.3,8.7,9.8,13.9,13.8c0.2,0.1,0.5,0.3,0.5,0.5c0.2,1.1,1,1.7,1.9,2.2c0.8,0.5,1.6,0.9,2.4,1.5c2,1.4,4,3,6.1,4.3
			c2.7,1.8,5.6,2.8,8.8,2.4c0.7-0.1,1.4-0.2,1.9-0.5c0.8-0.6,1.6-0.7,2.5-0.9c0.3,0.8,0.3,0.9,1.1,0.5c1.1-0.5,2.3-1.1,3.4-1.6
			c1.1-0.5,2.1-1.2,2.5-2.4c0.1-0.3,0.4-0.6,0.6-0.9c0.6-1.1,1.2-2.2,1.6-3.3c0.6-1.5,0.4-3-0.3-4.5c-0.5,0.3-0.7-0.1-0.9-0.5
			c-1.4-3.4-3.7-6-7.3-7.3c-0.6-0.2-1.3-0.5-1.8-0.4c-0.6,0.2-1-0.1-1.5-0.3c-0.4-0.2-0.7-0.5-1-0.6c-0.2-0.1-0.5-0.1-0.8-0.2
			c0.1,0.4,0.2,0.6,0.2,0.9c-0.3,0-0.5,0-0.8,0.1c-0.1,0-0.1,0-0.2,0c-1.5-0.5-3.1-1.1-4.6-1.6c-0.7-0.3-1.5-0.5-2.2-0.8
			c0.5,0.8,1.5,0.9,1.8,1.9c-0.3-0.1-0.5-0.1-0.6-0.2c-0.9-0.5-1.7-1.1-2.6-1.6c-1.3-0.8-2.6-1.4-4.1-1.4c-0.1,0-0.3-0.1-0.4-0.2
			c-0.3-0.4-0.5-0.9-0.7-1.3c-0.1-0.1-0.2-0.2-0.4-0.3c-1-0.2-1.8-0.7-2.3-1.5c-0.9-1.5-1.8-3-2.7-4.5c-0.3-0.5-0.6-0.9-0.8-1.4
			c0,0-0.1,0-0.1,0.1c0.1,0.4,0.1,0.7,0.2,1.1c-1.7-1.3-3.9-6.7-3.4-8c1.6,3.2,3.6,6.2,6.3,8.6c-0.9-1.6-2.6-2.7-3.1-4.8
			c0.3,0.2,0.5,0.3,0.8,0.6c0-0.9-1.4-1.1-0.9-2.2c0.2,0.2,0.3,0.4,0.4,0.5c0.9,1.1,1.7,2.3,2.6,3.3c1.7,1.9,3.6,3.6,5.9,4.6
			c0.8,0.3,1.6,0.5,2.5,0.8c0-0.1,0.1-0.2,0.1-0.2c-0.8-0.6-1.6-1.3-2.4-1.9c-1.7-1.4-3.5-2.8-4.8-4.5c-0.3-0.4-0.6-0.9-0.9-1.4
			c0,0,0.1-0.1,0.1-0.1c0.9,0.8,1.9,1.3,3.2,1.2c-0.5-0.5-1-1-1.5-1.6c0.2-0.1,0.3-0.2,0.4-0.3c-4.6-4.9-6.9-10.6-6.7-17.3
			c0.3,1,0.6,2.1,0.8,3.2c0.3,1.6,0.6,2.6,1.1,3c0-0.1,0-0.2,0-0.3c-0.8-4-1.2-8-1.4-12.1c0-0.5,0.2-1-0.4-1.3c-0.1,0,0-0.3,0-0.5
			c0-0.2,0-0.3,0-0.5c-0.1,0-0.1,0-0.2-0.1c-0.1,0.2-0.2,0.3-0.3,0.5c-0.1,0.2-0.2,0.4-0.3,0.9c-0.4-0.5-0.7-0.8-0.8-1.1
			c-0.1-0.4,0.2-0.8,0.3-1.2c0.1,0,0.1,0,0.2,0c0,0.4,0,0.8,0.1,1.1c0.1,0,0.2,0,0.3,0c0.1-0.6,0.3-1.1,0.2-1.7
			c-0.2-1.3,0.1-2.4,0.5-3.6c0.3-1.2,0.5-2.4,0.7-3.6c0-0.2,0.2-0.5,0.3-0.5c0.6-0.1,0.5-0.5,0.6-0.9c0.1-0.3,0.2-0.6,0.3-0.9
			c0.2,0.1,0.4,0.2,0.6,0.2c0.5-1.3,0.1-2.9,1.5-3.8c0.2,0.3,0.4,0.5,0.6,0.7c0.2-0.2,0.4-0.4,0.6-0.6c0.2-0.3,0.4-0.7,0.6-1
			c0.9-1.7,1.7-3.4,2.6-5c0.4-0.7,1.1-1.2,1.7-1.7c0.3-0.2,0.5-0.3,0.5-0.7c0.1-1.3,0.6-1.7,1.9-2.1c0.2,0,0.4-0.2,0.4-0.4
			c0.1-0.8,0.6-1.3,1.1-1.8c0.3-0.3,0.6-0.6,0.8-0.9c0.1-0.2,0.2-0.5,0.2-0.7c-0.3,0-0.6-0.1-0.8,0c-0.4,0.3-0.7,0.7-1,1
			c-0.2,0.2-0.5,0.3-0.7,0.5c-0.1-0.1-0.1-0.1-0.2-0.2c0.3-0.4,0.7-0.8,1-1.2c0.3-0.4,0.7-0.9,1-1.3c0.3-0.4,0.5-0.9,0.3-1.5
			c-0.4,0.6-0.4,1.5-1.3,1.5c0-0.3,0-0.5,0.1-0.9c-0.3,0.2-0.6,0.3-0.8,0.5c-1.1,1.1-2.4,2.2-3.4,3.5c-1.8,2.2-3.4,4.6-5.1,6.9
			c-0.5,0.7-1,1.3-1.6,1.9c0,0-0.1-0.1-0.1-0.1c0.8-1.5,2.2-2.4,2.9-4.1c-0.4,0.4-0.8,0.7-1.1,1c0,0-0.1-0.1-0.1-0.1
			c0.1-0.1,0.1-0.2,0.2-0.3c1.6-2,3.3-4,4.9-6c2.3-2.8,4.8-5.5,7.7-7.8c1.4-1.1,2.7-2.2,4.2-3.1c1.4-0.9,2.9-1.5,4.3-2.3
			c0,0.1,0.1,0.1,0.1,0.2c-0.1,0.1-0.1,0.3-0.2,0.4c1.3-0.3,2.6-0.6,3.9-0.9c0.3-0.1,0.5-0.2,0.4-0.6c0-0.1,0.2-0.3,0.3-0.4
			c0.1,0.1,0.3,0.3,0.3,0.4c-0.1,0.5,0.2,0.5,0.5,0.4c1.1-0.1,2.1-0.3,3.2-0.3c1-0.1,2.1,0,3.1,0c0.2,0,0.4-0.1,0.6-0.1
			C79.7,33.1,80,32.6,80.3,32.1z M32.2,58.2c0.1,0.7,0.1,1.2,0.2,1.8c-0.8-0.2-0.9,0.3-0.9,0.8c0,0.3-0.2,0.7-0.2,1
			c-0.1,0-0.1,0-0.2-0.1C30.9,61.1,31.2,60.2,32.2,58.2z M26.2,105.5c-0.6-0.4-0.6-1.1-0.8-1.7c0.1,0,0.1-0.1,0.2-0.1
			c0.3,0.6,0.5,1.1,0.8,1.7C26.3,105.5,26.2,105.5,26.2,105.5z M33.9,92.2c-0.5-0.4-0.7-1.4-0.4-2.8C34,89.8,34.1,90.7,33.9,92.2z
			 M53.6,57.3c-0.1-0.3-0.2-0.5-0.4-0.9c-3.1,5-4.9,10.4-6.6,15.8c-0.1,0-0.2,0-0.2,0c0.1-1,0.1-2,0.4-2.9c0.4-1.4,0.9-2.8,1.4-4.1
			c0.4-1.1,0.7-2.1,1.1-3.2c1.3-3.5,3.5-6.5,6.1-9.1c2.8-2.9,6.1-5.2,9.4-7.5c0.1-0.1,0.3-0.1,0.5-0.3c-0.1,0.2,0,0.4-0.1,0.4
			c-1.2,0.7-1.7,1.9-2.6,2.9c-0.3,0.4-0.6,0.7-1,0.1c-1.3,2.1-3.2,3.4-4.9,4.9c-1.2,1-2.2,2.2-2.7,3.7
			C53.8,57.1,53.7,57.2,53.6,57.3z M90.7,22.4c0,0.1,0,0.1,0,0.2c-1,0-2.1,0-3.1,0c-1.3,0.1-2.6,0.1-3.9,0.3
			c-0.7,0.1-0.5-0.3-0.5-0.7c-0.4-0.1-0.7-0.3-0.6,0.4c0,0.1-0.3,0.4-0.4,0.4c-0.7,0.1-1.3,0.1-2,0.2c1.1-1.8,7.3-3.2,10-1.9
			C90,22.2,90,22.2,90.7,22.4z M42.4,43.6c4.1-5.6,9.4-9.8,15.7-12.7c-5.9,3.6-10.9,8.1-15.2,13.4c-0.1,0-0.1-0.1-0.2-0.1
			c0.1-0.3,0.3-0.5,0.4-0.9C42.8,43.3,42.6,43.5,42.4,43.6z M40.1,40.7c0.5-1.5,0.8-2,1.7-2.2c0.1,0.2,0.2,0.3,0.3,0.6
			c0.7-0.7,1.4-1.4,2-2.2c0.1,0,0.1,0.1,0.2,0.1c-1,1.6-2,3.1-3,4.7c-0.1,0.1-0.3,0.2-0.4,0.2c-0.1,0-0.2-0.3-0.2-0.4
			C40.8,40.9,40.5,40.7,40.1,40.7z M88.8,24.2c-0.1,0.2-0.1,0.2-0.1,0.3c-1.3,0.7-2.7,0.9-4.1,0.7c-0.1,0-0.2,0-0.2-0.1
			c-0.5-0.8-1.1-0.4-1.7-0.2c-0.2,0.1-0.4,0.3-0.6,0.4c0,0.1,0,0.1,0,0.2c-0.6-0.1-1.1-0.2-1.7-0.3C83.1,24.1,85.9,23.8,88.8,24.2z
			 M82.6,25.9c-3.2,0.8-6.5,1.7-9.7,2.5C73.6,27.6,81.4,25.6,82.6,25.9z M69.7,25.6c0-0.1,0-0.1,0-0.2c1.4-1,3-1.2,4.6-1.4
			c0,0.1,0,0.1,0,0.2C72.8,24.7,71.3,25.1,69.7,25.6z M75.6,24.1c0.2-0.9,1.3-1.2,2.6-0.7C77.9,24,77.4,24.1,75.6,24.1z M34.5,60.1
			c0.3-2,1.5-3.5,2.5-5.2c0.1,0,0.1,0.1,0.2,0.1C36.3,56.7,35.4,58.4,34.5,60.1z M46.5,43.6c-0.2,1.3-1.4,1.8-2.1,2.7
			C44.8,45.1,45.6,44.3,46.5,43.6z M83.4,20.2c0.7-0.8,1.8,0,2.6-0.6C86.1,20.4,84.7,20.7,83.4,20.2z M39.7,47.6
			c-0.7,1-1.4,2.1-2.1,3.1c0-1.4,1.2-2.2,1.9-3.3C39.5,47.4,39.6,47.5,39.7,47.6z M48.9,98.2c0.5,0.8,1,1.6,1.5,2.4
			C49.7,100.7,48.9,99.5,48.9,98.2z M37.5,59.4c-0.3-1.4,0.8-1.9,1.1-2.8c0.1,0,0.2,0.1,0.2,0.1C38.4,57.5,38,58.3,37.5,59.4z
			 M51,39.5c0.3-0.3,0.6-0.6,1-0.9c0.2,0.6-0.3,0.8-0.6,1.1c-0.3,0.3-0.7,0.6-1,0.9C50.1,39.9,50.6,39.8,51,39.5z M52.8,37.9
			c0.4-0.3,0.9-0.6,1.4-0.9c0.1,0.1,0.1,0.1,0.2,0.2c-0.5,0.4-1,0.9-1.5,1.4C52.5,38.4,52.5,38.1,52.8,37.9z M53.6,106.5
			c-0.1-0.9-1.3-0.9-1.5-1.9C53.4,105.2,54,105.9,53.6,106.5z M67.3,35.5c-1.1,0.5-2.1,1-3.2,1.5c0-0.1,0-0.2-0.1-0.2
			c1-0.5,2.1-1,3.1-1.5C67.2,35.4,67.3,35.5,67.3,35.5z M82.3,27.4c0,0.1,0,0.2,0,0.3c-0.9,0.1-1.7,0.2-2.6,0.3c0-0.1,0-0.2,0-0.2
			C80.6,27.6,81.5,27.5,82.3,27.4z"/>
		
			<linearGradient id="SVGID_00000166663166294353338280000010364240220065290413_" gradientUnits="userSpaceOnUse" x1="86.2812" y1="71.6668" x2="154.1053" y2="56.3726" gradientTransform="matrix(1 -4.157872e-03 4.157872e-03 1 -7.1928 15.3604)">
			<stop  offset="0.4754" style="stop-color:#6BB649"/>
			<stop  offset="0.5895" style="stop-color:#5CA844"/>
			<stop  offset="0.8032" style="stop-color:#358639"/>
			<stop  offset="0.9242" style="stop-color:#197332"/>
		</linearGradient>
		<path style="fill:url(#SVGID_00000166663166294353338280000010364240220065290413_);" d="M148.1,76.3c0-3.6-0.7-7-1.4-10.5
			c-0.5-2.5-1.5-4.9-2.5-7.3c-2.3-5.7-5.7-10.7-9.9-15.2c-3-3.4-6.5-6.3-10-9.1c-0.2-0.2-0.5-0.4-0.6-0.6c-0.3-1.1-1.1-1.7-2-2.2
			c-1.3-0.8-2.5-1.6-3.7-2.4c-1.9-1.3-3.7-2.7-5.7-3.9c-2.4-1.5-5.1-2.2-8-1.7c-0.5,0.1-1.2,0.1-1.6,0.5c-0.7,0.6-1.4,0.7-2.2,0.9
			c-0.1,0-0.4-0.1-0.4-0.2c-0.1-0.5-0.5-0.5-0.8-0.3c-1.7,0.8-3.3,1.7-5,2.6c-0.1,0.1-0.3,0.2-0.3,0.3c-0.8,1.5-1.7,2.9-2.5,4.5
			c-0.8,1.6-0.9,3.2-0.3,4.9c0.1,0.2,0.2,0.4,0.3,0.4c0.6-0.1,0.6,0.3,0.8,0.7c1.3,3.2,3.5,5.6,6.7,7.1c0.7,0.3,1.5,0.6,2.3,0.5
			c0.7-0.1,1.3,0.2,1.8,0.5c0.4,0.3,0.9,0.5,1.4,0.8c-0.1-0.4-0.1-0.7-0.1-1c0.3,0,0.6-0.1,0.9,0c1.7,0.5,3.3,1.1,5,1.7
			c0.5,0.2,1.1,0.4,1.6,0.6c-1.4-1.4-1.4-1.4-1.3-1.8c0.3,0.2,0.7,0.3,1,0.5c0.7,0.5,1.4,1,2.2,1.4c1,0.5,2.1,1,3.2,1.2
			c0.7,0.1,1.2,0.2,1.6,0.9c0.1,0.2,0.2,0.4,0.3,0.6c0.1,0.2,0.2,0.4,0.4,0.4c1,0.2,1.8,0.8,2.3,1.6c0.6,0.8,1.1,1.7,1.6,2.6
			c0.6,1,1.1,2,1.7,3c0,0,0.1,0,0.1-0.1c0-0.1-0.1-0.3-0.1-0.4c0-0.2,0.1-0.3,0.2-0.5c0.1,0.1,0.3,0.1,0.4,0.3
			c0.2,0.3,0.3,0.5,0.5,0.8c0.9,1.6,1.9,3.1,2.3,4.9c0.2,0.6,0.2,1.3,0.3,1.9c-0.1,0-0.2,0.1-0.3,0.1c-1.6-3.1-3.5-6-6.1-8.4
			c0.2,0.4,0.5,0.7,0.8,1c0.7,0.9,1.3,1.8,2,2.7c0.1,0.2,0.2,0.5,0.3,0.9c-0.4-0.2-0.5-0.3-0.8-0.4c0.2,0.8,1.3,1.1,0.7,2.2
			c-0.1-0.1-0.2-0.3-0.3-0.4c-1-1.3-2-2.7-3.1-3.9c-1.7-1.9-3.7-3.5-6.1-4.4c-0.5-0.2-1.1-0.3-1.7-0.5c0,0.1-0.1,0.1-0.1,0.2
			c0.7,0.6,1.4,1.1,2.1,1.7c1.4,1.2,2.8,2.3,4.1,3.6c0.7,0.7,1.4,1.5,1.7,2.5c-0.9-0.6-1.8-1.1-3-1.2c0.2,0.8,1.4,1,1.2,2.1
			c2.2,2.2,3.9,4.9,5.1,7.9c1.2,3,2,8.3,1.3,9.3c-0.7-1.9-0.6-4.1-1.6-5.9c0,0.6,0.1,1.2,0.2,1.8c0.3,2.7,0.7,5.4,0.9,8.1
			c0.1,1.4,0,2.9,0.7,4.3c0.1-0.3,0.1-0.5,0.3-0.7c0.1-0.1,0.4-0.3,0.5-0.2c0.8,0.4,0.8,1.4,0,2c0-0.3-0.1-0.6-0.1-1
			c-0.1,0.1-0.2,0.2-0.2,0.2c0,0.9,0,1.8,0,2.7c0,0.2,0,0.3,0,0.5c-0.3,1.3-0.7,2.5-1,3.8c-0.2,0.6-0.1,1.5-0.5,1.8
			c-0.5,0.4-0.6,0.9-0.8,1.4c-0.1,0.4-0.3,0.7-0.8,0.4c-0.5,1.3-0.1,2.9-1.6,3.7c-0.2-0.3-0.4-0.4-0.5-0.6c-0.2,0.2-0.4,0.3-0.6,0.6
			c-0.2,0.2-0.3,0.5-0.5,0.8c-0.8,1.6-1.6,3.3-2.5,4.8c-0.4,0.8-1.1,1.5-1.8,2c-0.5,0.3-0.7,0.6-0.8,1.2c-0.2,1-0.7,1.5-1.8,1.7
			c-0.2,0-0.4,0.2-0.4,0.3c-0.1,1.1-0.9,1.7-1.6,2.4c-0.3,0.3-0.5,0.7-0.7,1c0.7,0.2,1.2-0.1,1.5-0.5c0.2-0.3,0.4-0.6,0.7-0.8
			c0.1-0.1,0.3,0,0.5-0.1c0,0.1,0,0.3,0,0.4c-0.1,0.2-0.2,0.3-0.3,0.5c-0.4,0.5-0.8,0.9-1.2,1.4c-0.3,0.5-0.7,1-0.5,1.8
			c0.3-0.7,0.4-1.4,1.3-1.4c0,0.3,0,0.5,0,0.8c0.3-0.2,0.5-0.3,0.6-0.4c0.7-0.6,1.5-1.2,2.1-2c2.1-2.6,4.1-5.3,6.1-7.9
			c0.6-0.8,1.3-1.6,2-2.5c0.1,0.1,0.1,0.1,0.2,0.2c-0.9,1.2-1.9,2.5-2.8,3.7c0,0,0.1,0,0.1,0.1c0.3-0.2,0.6-0.4,0.9-0.6
			c0.1,0.1,0.1,0.1,0.2,0.2c-0.1,0.1-0.2,0.3-0.3,0.4c-2.8,3.3-5.5,6.7-8.4,9.9c-2.9,3.2-6.3,5.8-10.1,7.9c-0.8,0.5-1.8,0.8-2.8,1.3
			c0.1-0.3,0.1-0.4,0.2-0.5c-1.1,0.3-2.2,0.6-3.4,0.9c-0.4,0.1-0.9,0.1-0.7,0.7c0,0.1-0.2,0.2-0.3,0.2c-0.1,0-0.3-0.1-0.4-0.3
			c-0.1-0.1,0-0.3,0-0.3c-2.4,0.1-4.8,0.2-7.1,0.3c0.7,0.3,0.3,0.8,0.2,1.4c1,0.1,2,0.3,3,0.3c2.5,0.1,4.8-0.9,7.1-1.8
			c3.9-1.6,7.8-3.2,11.7-4.7c1.8-0.7,3.4-1.6,4.8-3.1c1.2-1.2,2.5-2.4,4-3.4c1.2-0.8,2.1-1.8,3-2.8c0.5-0.6,1-1.1,1.4-1.7
			c0.6-0.8,1.2-1.6,1.8-2.3c-0.1,0-0.1-0.1-0.2-0.1c-0.7,0.8-1.3,1.6-2,2.5c-1.3,1.6-1.7,1.9-2.5,2c4.7-5.4,7.5-11.7,10.5-18
			c0.1,0.1,0.1,0.2,0.1,0.3c-0.4,1.1-0.7,2.3-0.7,3.5c0,1.4-0.7,2.5-1.5,3.7c-0.7,1.1-1.5,2.2-2.2,3.4c-0.3,0.5-0.4,1.1-0.5,1.6
			c0.1,0,0.2,0.1,0.2,0.1c2.1-2.8,3.5-6.1,5.4-9c0.1,0.2,0.2,0.3,0.4,0.5c0.7-1.7,1.3-3.2,2-4.8c0.1,0,0.2,0,0.2,0.1
			c0,0.4,0,0.9-0.2,1.3c-0.3,0.9-0.6,1.7-0.9,2.6c-0.2,0.6-0.3,1.3-0.2,2.1c0.5-0.9,0.5-1.9,1.5-2.5c-0.1,0.5-0.1,0.8-0.2,1.1
			c0.1,0,0.2,0,0.3,0.1c0.3-0.8,0.6-1.5,0.9-2.3c0.6-1.9,1.2-3.8,1.8-5.7c0.2-0.6,0.5-1.2,0.8-1.8c0.1,0,0.2,0.1,0.2,0.1
			c-0.3,5.2-2.7,9.7-4.3,14.6c0.4-0.2,0.7-0.4,1-0.7c0.2-0.2,0.3-0.6,0.6-0.7c0.6-0.3,0.6-0.8,0.5-1.3c0-0.3-0.1-0.5,0-0.8
			c0-0.1,0.1-0.3,0.2-0.3c0.6,0,0.6-0.5,0.6-0.9c0-0.4,0-0.8,0.6-1c-0.1,2.1-1.8,3.8-1.4,6.1c0.1-0.2,0.1-0.3,0.2-0.4
			c0.3-0.8,0.7-1.5,1.1-2.3c0.1-0.1,0.3-0.2,0.4-0.3c0.1,0.2,0.3,0.3,0.3,0.5c-0.1,0.7-0.1,1.4-0.3,2c-0.3,0.9-0.7,1.7-1,2.5
			c-0.1,0.4-0.1,0.9-0.1,1.4c0.1,0,0.1,0,0.2,0c1.1-1.9,1.3-4.2,3-5.7c-0.3,1.8-1.9,3.1-1.5,5.1c0.5-1,0.9-2,1.3-3.1
			c0.8-2,1.5-3.9,2.3-5.9c0.1-0.3,0.2-0.7,0.1-1c-0.1-1.1,0.1-2,0.9-2.7c0.2-0.1,0.3-0.4,0.3-0.6c0.3-1,0.4-2.1,0.8-3.1
			c1.1-2.7,1.6-5.6,1.8-8.5c0.5-7-0.7-13.8-2.4-20.5c-0.3-1.3-0.7-2.6-1-3.9c0.2,0.1,0.3,0.3,0.4,0.5c0.7,2,1.5,4,2.1,6.1
			c1.1,3.8,1.5,7.7,1.7,11.7c0,0.8,0.2,1.6,0.3,2.4c0.1,0,0.1,0,0.2,0c0-0.2,0-0.4,0-0.6C148.1,79.5,148.1,77.9,148.1,76.3z
			 M124.9,69c-0.6-0.3-0.9-1.1-0.8-2C124.6,67.3,125,68.3,124.9,69z M124.2,107.1c-0.1-0.8,1.4-3.5,2.5-4.6
			C126.4,104.4,125.1,105.6,124.2,107.1z M135.8,73.9c-0.6-0.3-0.8-1.5-0.4-2.7C136,71.6,136.2,73,135.8,73.9z M143.7,59.6
			c-0.3-0.6-0.5-1.1-0.8-1.7c0.1,0,0.1-0.1,0.2-0.1c0.6,0.4,0.7,1.1,0.8,1.7C143.8,59.5,143.8,59.5,143.7,59.6z M115.4,106.6
			c0.1-0.1,0.2-0.2,0.2-0.4c0.2,0.2,0.3,0.4,0.5,0.5c0.1-0.2,0.3-0.3,0.4-0.5c2.7-4.6,4.5-9.5,6-14.5c0-0.1,0.1-0.2,0.1-0.4
			c0,0,0.1-0.1,0.3-0.1c-0.2,1-0.2,2.1-0.5,3.1c-0.3,1.2-0.8,2.4-1.3,3.7c-0.5,1.3-0.9,2.6-1.4,3.8c-1.4,3.5-3.7,6.4-6.3,9
			c-2.7,2.6-5.7,4.9-8.8,7c-0.1,0.1-0.2,0.1-0.3,0.1c0.9-1.1,1.8-2.2,2.7-3.3c0.1-0.1,0.5,0,0.8-0.1c0.7-0.8,1.5-1.7,2.4-2.5
			c1.1-1.1,2.3-2,3.4-3.1C114.3,108.4,114.8,107.4,115.4,106.6z M87.1,140.3c0.6,0,1.2-0.1,1.8-0.1c-1.5,1.9-7.5,3-9.9,1.8
			c0.1-0.4,0.4-0.8-0.2-1.2c2.4-0.1,4.7-0.1,7.1-0.2c0,0,0,0.2,0,0.3c0.1,0.1,0.2,0.2,0.4,0.3c0.1-0.1,0.3-0.3,0.3-0.4
			C86.5,140.4,86.8,140.3,87.1,140.3z M126.8,119.8c-3.9,5.2-8.7,9.1-14.4,12c5.3-3.5,10-7.7,14-12.6c0.1,0,0.1,0.1,0.2,0.1
			c-0.1,0.3-0.3,0.5-0.5,0.9C126.4,120,126.6,119.9,126.8,119.8z M128.9,122.8c0.1,0,0.2,0,0.2,0c-0.3,0.6-0.6,1.2-1,1.7
			c-0.3,0.4-0.7,0.4-1-0.2c-0.6,0.6-1.1,1.2-1.7,1.8c-0.1,0-0.1-0.1-0.2-0.1c0.5-0.8,0.9-1.6,1.4-2.4c0.4-0.6,0.8-1.2,1.3-1.8
			c0.1-0.1,0.3-0.1,0.4-0.2c0.1,0.1,0.1,0.3,0.2,0.4C128.7,122.2,128.8,122.5,128.9,122.8z M80.6,139c0.2-0.1,0.3-0.3,0.5-0.3
			c1.1-0.2,2.2-0.3,3.3-0.4c0.2,0,0.5,0.1,0.7,0.2c0.6,0.4,1.5,0.3,2-0.3c0.1-0.1,0.3-0.1,0.4-0.1c0.4,0.1,0.8,0.1,1.2,0.3
			C86.1,139.1,83.4,139.6,80.6,139z M96.1,135.2c-0.6,0.2-1.1,0.4-1.7,0.5c-0.7,0.2-1.4,0.5-2.1,0.7c-0.5,0.1-1.1,0.1-1.7,0.2
			c0-0.1,0-0.1,0-0.2c1.8-0.5,3.6-0.9,5.4-1.4C96.1,135.1,96.1,135.2,96.1,135.2z M91,139.8c0.8-0.7,1.7-0.4,2.6-0.6
			C93.2,140.1,92.2,140.3,91,139.8z M95.4,139c1.3-0.4,2.5-0.8,3.8-1.1C98.1,138.8,96.7,139,95.4,139z M85.8,143.1
			c-0.8,0.6-1.8,0-2.6,0.5C83.5,143,84.9,142.7,85.8,143.1z M132.4,107.9c0.7-1.3,1.4-2.6,2.1-3.9
			C134.1,105.5,133.3,106.7,132.4,107.9z M124.9,117.4c-0.6,0.8-1.3,1.5-1.9,2.3c-0.1-0.1-0.2-0.2-0.3-0.2c0.6-0.7,1.3-1.5,1.9-2.2
			C124.7,117.3,124.8,117.3,124.9,117.4z M129.9,115.6c0.3-1.1,1.2-1.7,1.7-2.7C131.5,114.1,130.6,114.8,129.9,115.6z M120.5,64.9
			c0,0-0.1,0.1-0.1,0.1c-0.4-0.7-0.9-1.4-1.4-2.3C120,63.2,120.2,64.1,120.5,64.9z M131.7,104.2c0.2,0.6-0.2,1.3-1.2,2.2
			c0.2-0.4,0.4-0.7,0.6-1.1C131.3,105,131.5,104.6,131.7,104.2z M115,126.1c0.5-0.4,1-0.8,1.4-1.2
			C116.7,125.4,116.3,125.7,115,126.1z M115.4,57.1c0,0,0.1-0.1,0.1-0.1c0.5,0.5,1,0.9,1.5,1.4c-0.1,0.1-0.1,0.1-0.2,0.2
			C116.3,58.1,115.7,57.8,115.4,57.1z M119,123.1c-0.5,0.5-1,0.9-1.6,1.4c-0.1-0.1-0.1-0.1-0.2-0.2c0.5-0.5,1.1-0.9,1.6-1.4
			C118.9,123,119,123.1,119,123.1z M89.7,136.8c0,0,0,0.1,0,0.1c-0.9,0.2-1.8,0.4-2.7,0.7c0-0.1,0-0.1-0.1-0.2
			C87.9,137.2,88.8,137,89.7,136.8z M102.4,127.6c0.7-0.4,1.5-0.7,2.2-1.1c0,0,0,0.1,0.1,0.1c-0.7,0.4-1.5,0.7-2.2,1.1
			C102.5,127.7,102.5,127.6,102.4,127.6z M89.2,135.7c-0.6,0.1-1.3,0.1-1.9,0.2c0-0.1,0-0.1,0-0.2c0.6-0.1,1.3-0.1,1.9-0.2
			C89.1,135.5,89.2,135.6,89.2,135.7z"/>
	</g>
	<g>
		<path class="st3" d="M185.6,126.5c1-1.5,1.9-3.2,2.8-4.8l5.1-9c1.3-2.3,2-2.7,3.6-1.8c1.7,0.8,2.2,1.5,1,3.3l-7.6,14.4
			c-2.3,4.6,3.6,5,6.6,4c4.6-1.4,8.2-5.7,9.4-10.3c0.8-2.9,0.3-4.6,0.7-7.4c1.2-7,6.9-5,5.5,1.4c-0.9,4.2-4.1,8.3-7.1,11.4
			c-4.3,4.6-11.7,9.5-18.2,7.2C182.4,133,184.3,128.6,185.6,126.5z"/>
		<path class="st3" d="M222.9,125.9c-0.8,1.5-2.7,4.3-2,6.1c0.3,0.8,1.2,1.2,2.2,1.3c2.2,0.2,4.2-0.9,5.8-1.7c1.2-0.5,1,0.2,0.2,0.7
			c-2.2,1.7-4.9,3.2-8.5,3.2c-3.1,0-6-1.4-5.5-4.9c0.1-1.1,0.7-2.2,1.2-3.1l8.5-16.2c0.5-0.9,1.7-0.7,3-0.7c2.4,0,2.7-0.3,1.9,1.7
			L222.9,125.9z M235.5,101.1c0,1.8-1.4,3.4-3.2,3.4c-1.8,0-3.4-1.6-3.4-3.4c0-1.8,1.6-3.2,3.4-3.2
			C234.1,97.8,235.5,99.2,235.5,101.1z"/>
		<path class="st3" d="M258.1,89.1c1.1-2.3,4.2-2.4,6.1-1.3c-4.4,8.5-8.9,17.1-13.3,25.7c4.8-1.9,8.5-2.9,10.7-1.9
			c3,1.2,3.4,4,3,6.6c-0.6,3.8-3.2,7.6-6.3,10.6c-4.3,4-10,7.3-16.8,6.2c-1.7-0.3-3.2-1-4-2.4c-1.2-2.2-0.6-3.9,0.5-6L258.1,89.1z
			 M256.8,115.1c-4-1.3-7.3,0.1-9.2,3.7l-3.9,7c-1.2,2-3.1,5.6-0.2,7.4c2.1,1.3,4.8,0.4,7.3-1c4.6-2.8,8-8,8-13.5
			C258.8,116.9,258.3,115.6,256.8,115.1z"/>
		<path class="st3" d="M284.3,122.9c-1.5,0.7-3.2,1.7-4.8,2.3c-2.2,0.8-4.9,1.6-4.6,3.6c0.4,2.9,3.5,4,6.1,4c1.8,0,3.6-0.5,5.3-1.3
			c1-0.4,1.7-0.8,2.8-1c-0.2,0.3-0.7,0.7-1.1,1c-2.6,2-5.3,3.5-8.6,3.8c-4.1,0.4-8.6-0.7-9.6-5.2c-0.6-2.7,0.2-6,1.6-8.3
			c1.1-1.9,2.6-3.7,4.2-5.3c2.7-2.5,7.1-5.5,11-5.4c3.7,0.1,6.2,3.4,3.6,7.3C288.8,120.2,286.4,121.8,284.3,122.9z M283.9,119.4
			c1.2-1.2,3.2-4.6,1.7-6.2c-1.5-1.6-4.6,1.2-6.1,2.7c-0.7,0.7-5.1,7.9-2.4,7.8C278.6,123.7,281.8,121.7,283.9,119.4z"/>
	</g>
</g>
</svg>
